<svg width="155px" height="51px" viewBox="0 0 155 51" version="1.1" xmlns="http://www.w3.org/2000/svg" xmlns:xlink="http://www.w3.org/1999/xlink">
    <title>logo-transapp-white</title>
    <g stroke="none" stroke-width="1" fill="none" fill-rule="evenodd">
        <g transform="translate(-20.000000, -15.000000)" fill="#FFFFFF">
            <g id="logo-transapp-white" transform="translate(20.000000, 15.000000)">
                <path d="M148.970276,32.4672554 C149.411853,32.4672554 149.851393,32.5022795 150.288896,32.5723277 C150.726399,32.6423759 151.241505,32.8263036 151.834823,33.1237012 C152.428141,33.4213036 152.936728,33.8065687 153.361196,34.2792916 C153.785664,34.7518096 154.153712,35.4457373 154.465749,36.3604602 C154.777378,37.275388 154.89816,38.3322554 154.89816,39.5314723 C154.89816,41.7283639 154.400775,43.4156651 153.335125,44.5931711 C152.269678,45.7706771 150.744934,46.3593277 148.761505,46.3593277 C148.013187,46.3593277 147.260388,46.279653 146.547306,46.1205084 L146.547306,50.8975084 L143.288436,50.8975084 L143.288436,36.9841349 C143.288436,35.7496892 143.818206,34.6885205 144.735986,33.8000145 C145.653561,32.9115084 147.065263,32.4672554 148.970276,32.4672554 Z M134.225519,32.4672554 C134.6673,32.4672554 135.106636,32.5022795 135.544343,32.5723277 C135.981643,32.6423759 136.496748,32.8263036 137.090066,33.1237012 C137.683384,33.4213036 138.192175,33.8065687 138.616643,34.2792916 C139.040907,34.7518096 139.408955,35.4457373 139.720992,36.3604602 C140.032825,37.275388 140.233246,38.3322554 140.233246,39.5314723 C140.233246,41.7283639 139.656018,43.4156651 138.590572,44.5931711 C137.524921,45.7706771 136.000381,46.3593277 134.016748,46.3593277 C133.268633,46.3593277 132.595473,46.3460145 131.882392,46.1866651 L131.82475,50.8975084 L128.623522,50.8975084 L128.623522,36.9841349 C128.623522,35.7496892 129.073449,34.6885205 129.991432,33.8000145 C130.909008,32.9115084 132.320506,32.4672554 134.225519,32.4672554 Z M23.0157687,0 C35.7269908,0 46.0315375,10.3622169 46.0315375,23.1445783 L46.0315375,46.2891566 L23.0157687,46.2891566 C10.3045466,46.2891566 0,35.9269398 0,23.1445783 C0,10.3622169 10.3045466,0 23.0157687,0 Z M54.4608081,28.7771084 L54.4608081,32.4638554 L57.9054336,32.4638554 L57.9054336,34.5120482 L54.4608081,34.5120482 L54.4608081,42.6040482 C54.4608081,43.2869157 54.601958,43.7661928 54.8848686,44.0418795 C55.1673719,44.3175663 55.6653679,44.4554096 56.3788568,44.4554096 C56.926958,44.4554096 57.435749,44.3503373 57.9054336,44.1403976 L57.9054336,45.9655422 C57.3400197,46.1754819 56.7746058,46.2805542 56.2091919,46.2805542 L56.1440145,46.2805542 C55.7871682,46.2805542 55.4392838,46.2412289 55.1001577,46.1625783 C54.7608279,46.0837229 54.3779106,45.9282651 53.9518134,45.6962048 C53.5255125,45.4645542 53.1819054,45.0747831 52.9209921,44.527506 C52.6600788,43.9806386 52.5295204,43.3045301 52.5295204,42.4989759 L52.4474376,34.5120482 L50.2069645,34.5120482 L50.2069645,32.4638554 L52.4474376,32.4638554 L52.4474376,28.7771084 L54.4608081,28.7771084 Z M74.3402812,32.4146373 C76.2082247,32.4146373 77.6329619,32.8896133 78.6149001,33.8393602 C79.5968384,34.789312 80.0877057,36.178806 80.0877057,38.0084566 L80.0877057,42.0393 C80.0877057,42.8974928 79.8901367,43.630541 79.494795,44.2388542 C79.0994534,44.8473723 78.5910696,45.2873241 77.9698476,45.5585048 C77.3484218,45.8298904 76.7663062,46.0179145 76.223297,46.1231916 C75.6800841,46.228059 75.1435926,46.2804928 74.6138226,46.2804928 C74.2044271,46.2804928 73.7842365,46.2540711 73.353251,46.2016373 C72.9220618,46.1489988 72.4342497,46.0283602 71.8900184,45.8395169 C71.3455834,45.6506735 70.873251,45.4091916 70.4728173,45.1150711 C70.07218,44.8207458 69.7302024,44.3994325 69.4472917,43.8507217 C69.1641774,43.3020108 69.0228239,42.6676855 69.0228239,41.947541 C69.0228239,41.3443482 69.1336255,40.8036253 69.3554323,40.3253723 C69.5772392,39.8473241 69.8491511,39.459806 70.1709645,39.1624084 C70.4927779,38.8650108 70.9017661,38.6108301 71.3975217,38.3998663 C71.8934809,38.1884928 72.3326137,38.0336494 72.7153272,37.934312 C73.0980407,37.8353843 73.5526531,37.7600108 74.0789606,37.7081916 C74.6052681,37.6565771 74.9794271,37.6262639 75.2012339,37.6174566 C75.4230407,37.6088542 75.6859908,37.6043482 75.9906951,37.6043482 L78.1305506,37.7325651 C78.1305506,36.5145048 77.8026268,35.6452518 77.1471866,35.1250108 C76.4915427,34.6049747 75.5212142,34.3448542 74.2362011,34.3448542 C72.7927254,34.3448542 71.4928436,34.5595048 70.3365558,34.9881916 L70.3365558,33.1104084 C71.6494731,32.6466976 72.9839803,32.4146373 74.3402812,32.4146373 Z M105.049284,27.9239337 C106.649797,27.9239337 108.246236,28.3409458 109.83799,29.1745602 L109.83799,32.335741 C108.463562,31.4255241 106.993404,30.9702108 105.427721,30.9702108 C104.44456,30.9702108 103.611716,31.1408253 102.928982,31.482259 C102.246045,31.8236928 101.904679,32.3621627 101.904679,33.0974639 C101.904679,33.6926687 102.215493,34.1590422 102.83753,34.4957651 C103.459567,34.8328976 104.211959,35.1175964 105.094909,35.349247 C105.977859,35.5813072 106.865086,35.8725602 107.756794,36.2225964 C108.648299,36.5728373 109.405171,37.1791024 110.027412,38.0411867 C110.649041,38.9034759 110.960263,40.0172831 110.960263,41.3828133 C110.960263,42.8243313 110.364298,44.0012229 109.17257,44.9130783 C107.980638,45.8247289 106.527997,46.2804518 104.814442,46.2804518 C102.552379,46.2804518 100.59115,45.779259 98.9295342,44.7770783 L98.9295342,41.5141024 C100.460592,42.6610904 102.174147,43.2341747 104.070809,43.2341747 C106.523719,43.2341747 107.750277,42.5472108 107.750277,41.1728735 C107.750277,40.5514518 107.52847,40.0348976 107.084856,39.6234157 C106.641242,39.2121386 106.080106,38.9077771 105.40165,38.710741 C104.723194,38.5139096 103.99667,38.2820542 103.222484,38.0149699 C102.448299,37.7478855 101.721978,37.4568373 101.043319,37.1416205 C100.364863,36.8266084 99.803726,36.3342229 99.360316,35.6644639 C98.9164987,34.9949096 98.6946919,34.1655964 98.6946919,33.1763193 C98.6946919,31.4390422 99.2992122,30.1290181 100.508457,29.2470663 C101.717497,28.3651145 103.231039,27.9239337 105.049284,27.9239337 Z M119.34444,32.4407518 C121.247009,32.4407518 122.702298,32.929041 123.710307,33.9050048 C124.718112,34.8813783 125.160911,36.292788 125.160911,38.1396434 L125.160911,41.7637157 C125.160911,42.9979566 124.763737,44.0595349 123.846976,44.9478361 C122.930419,45.836547 121.52055,46.2805952 119.617574,46.2805952 C117.649216,46.2805952 116.199223,45.8340892 115.267593,44.9412819 C114.335557,44.0482699 113.869945,42.9631373 113.869945,41.6848602 C113.869945,41.4136795 113.896016,41.1357398 113.948769,40.851041 C114.001115,40.5667518 114.139006,40.2099566 114.361831,39.7808602 C114.585064,39.3521735 114.889157,38.9757157 115.274111,38.6516916 C115.659065,38.3280771 116.227534,38.0499325 116.980129,37.8178723 C117.732317,37.5862217 118.620156,37.4698843 119.643848,37.4698843 C120.372409,37.4698843 121.153316,37.5313301 121.986161,37.653812 C121.986161,35.9468482 121.044755,35.0933663 119.162147,35.0933663 C117.6594,35.0933663 116.353408,35.3211253 115.243763,35.7762337 L115.243763,33.1236193 C116.475208,32.6687157 117.841897,32.4407518 119.34444,32.4407518 Z M67.2612418,32.4409157 L67.2612418,34.2660602 C65.8039159,34.301494 64.405046,34.4917711 62.8350854,34.9216867 L62.8350854,46.186747 L60.7982917,46.186747 L60.7982917,33.8256988 C62.8077924,32.98 64.9559987,32.4409157 67.2612418,32.4409157 Z M89.3842838,32.4146988 C91.0613798,32.4146988 92.3624836,32.8435904 93.2877989,33.7015783 C94.2131143,34.5593614 94.609067,35.7675904 94.609067,37.3254458 L94.609067,46.186747 L92.7759527,46.186747 L92.7759527,37.3254458 C92.7759527,36.9491928 92.7056833,36.6145181 92.6274704,36.321012 C92.5492576,36.0277108 92.3973127,35.7149518 92.171636,35.3821205 C91.9457556,35.0496988 91.5811695,34.7936747 91.0776741,34.6140482 C90.573975,34.4348313 89.9403285,34.3449157 89.1761235,34.3449157 C88.055887,34.3449157 86.8627332,34.5245422 85.6471748,34.8831807 L85.6471748,46.186747 L83.8140604,46.186747 L83.8140604,33.7277952 C85.5642773,32.8523976 87.3727464,32.4146988 89.3842838,32.4146988 Z M75.7862011,39.2951313 C72.5646045,39.2951313 70.953908,40.1793361 70.953908,41.947541 C70.953908,43.6196855 72.160912,44.4553482 74.5749198,44.4553482 L74.6138226,44.4553482 C76.9754849,44.4553482 78.1566216,43.6456976 78.1566216,42.0259867 L78.1566216,39.4526373 C77.5661551,39.3477699 76.7758791,39.2951313 75.7862011,39.2951313 Z M148.970276,35.237641 C147.36956,35.237641 146.547306,35.7193759 146.547306,36.6820265 L146.547306,43.6807012 C147.286459,43.7857735 147.965526,43.838412 148.539698,43.838412 C149.574796,43.838412 150.364054,43.5342554 150.907878,42.9257373 C151.451498,42.3174241 151.72341,41.2429422 151.72341,39.7020867 C151.72341,38.1266169 151.518916,36.988641 151.110131,36.288159 C150.701347,35.5878819 149.988062,35.237641 148.970276,35.237641 Z M134.225519,35.237641 C132.625007,35.237641 131.882392,35.7193759 131.882392,36.6820265 L131.882392,43.6807012 C132.621544,43.7857735 133.220769,43.838412 133.795145,43.838412 C134.830243,43.838412 135.619501,43.5342554 136.163325,42.9257373 C136.706945,42.3174241 136.978653,41.2429422 136.978653,39.7020867 C136.978653,38.1266169 136.774363,36.988641 136.365578,36.288159 C135.95659,35.5878819 135.243305,35.237641 134.225519,35.237641 Z M120.099072,39.5315952 C118.094867,39.5315952 117.088487,40.1136916 117.079932,41.2778843 C117.079932,42.7136675 117.917055,43.4313542 119.591503,43.4313542 L119.617574,43.4313542 C121.214012,43.4313542 122.012232,42.7529928 122.012232,41.3960651 L122.012232,39.7022096 C121.266154,39.5971373 120.628434,39.5404024 120.099072,39.5315952 Z M23.0157687,6.75903614 C14.0310644,6.75903614 6.72141919,14.1095904 6.72141919,23.1445783 C6.72141919,32.1795663 14.0310644,39.5301205 23.0157687,39.5301205 C32.0004731,39.5301205 39.3101183,32.1795663 39.3101183,23.1445783 C39.3101183,14.1095904 32.0004731,6.75903614 23.0157687,6.75903614 Z M23.0156873,10.6729277 C29.8652208,10.6729277 35.4179277,16.2567108 35.4179277,23.1445783 C35.4179277,30.0324458 29.8652208,35.6162289 23.0156873,35.6162289 C16.1661537,35.6162289 10.6136505,30.0324458 10.6136505,23.1445783 C10.6136505,16.2567108 16.1661537,10.6729277 23.0156873,10.6729277 Z M27.4146524,14.0622157 C25.0986143,14.0622157 23.2213016,15.9500349 23.2213016,18.2788301 C23.2213016,20.6076253 25.0986143,22.4954446 27.4146524,22.4954446 C29.7304869,22.4954446 31.6077996,20.6076253 31.6077996,18.2788301 C31.6077996,15.9500349 29.7304869,14.0622157 27.4146524,14.0622157 Z" id="Fill-18"></path>
            </g>
        </g>
    </g>
</svg>